<svg enable-background="new 0 0 256 256" height="512" viewBox="0 0 256 256" width="512" xmlns="http://www.w3.org/2000/svg"><g id="Layer_25"><g><g><g><path d="m220.264 79.538c-17.21 0-122.044 0-136.886 0-2.677 0-4.847 2.17-4.847 4.847v50.201c0 2.677 2.17 4.847 4.847 4.847h119.059c2.419 0 4.56-1.567 5.291-3.873l16.188-51.032c.785-2.47-1.06-4.99-3.652-4.99z" fill="#70d6f9"/></g></g><g><g><path d="m83.378 139.434c-2.677 0-4.847-2.17-4.847-4.847v-50.202c0-2.677 2.17-4.847 4.847-4.847h116.433v-55.072c0-6.787-5.553-12.341-12.341-12.341h-100.366l-50.402 50.401v159.008c0 6.787 5.553 12.341 12.341 12.341h138.428c6.787 0 12.341-5.553 12.341-12.341v-82.101h-116.434z" fill="#edf4fc"/></g></g><g><g><path d="m36.702 62.526h38.061c6.787 0 12.341-5.553 12.341-12.341v-38.06z" fill="#70d6f9"/></g></g><g><g><path d="m53.194 19.551c-4.149.773-7.419 3.976-8.208 8.041-.04.204-.325.204-.364 0-.789-4.065-4.059-7.268-8.208-8.041-.208-.039-.208-.318 0-.357 4.149-.773 7.419-3.976 8.208-8.041.04-.204.325-.204.364 0 .789 4.065 4.059 7.268 8.208 8.041.208.039.208.318 0 .357z" fill="#f5c84c"/></g></g><g><g><path d="m222.688 151.998c-2.91.542-5.204 2.789-5.757 5.64-.028.143-.228.143-.255 0-.553-2.851-2.847-5.098-5.757-5.64-.146-.027-.146-.223 0-.25 2.91-.542 5.204-2.789 5.757-5.64.028-.143.228-.143.255 0 .553 2.851 2.847 5.098 5.757 5.64.146.027.146.222 0 .25z" fill="#fc657e"/></g></g><g><g><circle cx="76.257" cy="3.377" fill="#70d6f9" r="3.377"/></g></g><g><g><circle cx="214.257" cy="176.377" fill="#f5c84c" r="3.377"/></g></g><g><g><path d="m122.73 246.758h-1.824v-1.824c0-1.366-1.107-2.473-2.473-2.473s-2.473 1.107-2.473 2.473v1.824h-1.824c-1.366 0-2.473 1.107-2.473 2.473s1.107 2.473 2.473 2.473h1.824v1.824c0 1.366 1.107 2.473 2.473 2.473s2.473-1.107 2.473-2.473v-1.824h1.824c1.366 0 2.473-1.107 2.473-2.473s-1.108-2.473-2.473-2.473z" fill="#87d147"/></g></g><g><g><circle cx="149.641" cy="247.627" fill="#70d6f9" r="3.377"/></g></g><g><g><path d="m202.438 141.934h-119.06c-4.051 0-7.347-3.296-7.347-7.348v-50.201c0-4.051 3.296-7.347 7.347-7.347h136.886c2.041 0 3.903.945 5.109 2.592s1.544 3.708.927 5.655l-16.188 51.033c-1.066 3.358-4.15 5.616-7.674 5.616zm-119.06-59.896c-1.294 0-2.347 1.053-2.347 2.347v50.201c0 1.294 1.053 2.348 2.347 2.348h119.06c1.336 0 2.504-.855 2.908-2.128l16.188-51.032c.178-.561-.046-.986-.195-1.19s-.487-.545-1.075-.545h-136.886z"/></g></g><g><g><path d="m187.471 236.375h-138.428c-8.184 0-14.841-6.658-14.841-14.841v-159.008c0-.663.264-1.299.732-1.768l50.401-50.401c.469-.469 1.104-.732 1.768-.732h100.367c8.184 0 14.841 6.658 14.841 14.841v54.472c0 1.381-1.119 2.5-2.5 2.5s-2.5-1.119-2.5-2.5v-54.472c0-5.426-4.415-9.841-9.841-9.841h-99.331l-48.937 48.937v157.972c0 5.426 4.415 9.841 9.841 9.841h138.428c5.426 0 9.841-4.415 9.841-9.841v-81.617c0-1.381 1.119-2.5 2.5-2.5s2.5 1.119 2.5 2.5v81.617c0 8.183-6.658 14.841-14.841 14.841z"/></g></g><g><g><g><g><path d="m119.518 97.693c5.02 0 8.486 2.573 10.012 6.531.074.193.26.32.467.32h4.299c.336 0 .572-.324.48-.64-1.928-6.626-7.125-10.974-15.213-10.974-6.235 0-11.022 3.07-13.587 8.017-2.601 5.018-2.641 12.081.001 17.142 2.527 4.85 7.273 7.994 13.586 7.994 8.091 0 13.286-4.349 15.213-10.973.092-.316-.145-.64-.48-.64h-4.299c-.207 0-.393.127-.467.32-1.522 3.95-4.983 6.531-10.012 6.531-3.813 0-7.083-1.859-8.936-5.503-1.835-3.611-1.798-9.03.001-12.602 1.838-3.642 5.09-5.523 8.935-5.523z"/></g></g><g><g><path d="m150.525 107.241c-3.524-1.133-6.952-2.08-6.952-5.749 0-2.934 2.041-4.381 4.918-4.381 3.306 0 5.247 2.031 5.688 4.34.045.236.251.406.491.406h4.389c.299 0 .535-.264.496-.563-.604-4.699-4.372-8.452-11.064-8.452-6.052 0-10.307 3.286-10.307 8.784 0 6.106 4.208 7.82 9.529 9.568 3.738 1.179 7.174 2.307 7.174 6.061 0 2.586-1.607 4.605-5.053 4.605-3.611 0-5.9-2.359-6.176-5.103-.025-.256-.24-.45-.497-.45h-4.344c-.293 0-.525.251-.498.544.51 5.791 5.573 9.278 11.648 9.278 6.533 0 10.263-4.068 10.263-9.008.001-6.333-4.209-8.101-9.705-9.88z"/></g></g><g><g><path d="m169.008 101.492c0-2.934 2.041-4.381 4.918-4.381 3.306 0 5.247 2.031 5.688 4.34.045.236.251.406.491.406h4.389c.299 0 .535-.264.496-.563-.604-4.699-4.372-8.452-11.064-8.452-6.052 0-10.307 3.286-10.307 8.784 0 11.893 16.703 7.355 16.703 15.628 0 2.586-1.607 4.605-5.053 4.605-3.757 0-5.913-2.483-6.176-5.103-.025-.256-.24-.45-.497-.45h-4.344c-.293 0-.525.251-.498.544.51 5.791 5.573 9.278 11.648 9.278 6.533 0 10.263-4.068 10.263-9.008.001-12.251-16.657-7.657-16.657-15.628z"/></g></g></g></g><g><g><g><path d="m171.284 161.293h-82.826c-1.381 0-2.5-1.119-2.5-2.5s1.119-2.5 2.5-2.5h82.826c1.381 0 2.5 1.119 2.5 2.5s-1.119 2.5-2.5 2.5z"/></g></g><g><g><path d="m79.989 161.293h-14.76c-1.381 0-2.5-1.119-2.5-2.5s1.119-2.5 2.5-2.5h14.76c1.381 0 2.5 1.119 2.5 2.5s-1.119 2.5-2.5 2.5z"/></g></g><g><g><path d="m171.284 174.567h-50.375c-1.381 0-2.5-1.119-2.5-2.5s1.119-2.5 2.5-2.5h50.375c1.381 0 2.5 1.119 2.5 2.5s-1.119 2.5-2.5 2.5z"/></g></g><g><g><path d="m112.061 174.567h-46.832c-1.381 0-2.5-1.119-2.5-2.5s1.119-2.5 2.5-2.5h46.831c1.381 0 2.5 1.119 2.5 2.5s-1.119 2.5-2.499 2.5z"/></g></g><g><g><path d="m171.284 187.842h-17.599c-1.381 0-2.5-1.119-2.5-2.5s1.119-2.5 2.5-2.5h17.599c1.381 0 2.5 1.119 2.5 2.5s-1.119 2.5-2.5 2.5z"/></g></g><g><g><path d="m145.097 187.842h-79.868c-1.381 0-2.5-1.119-2.5-2.5s1.119-2.5 2.5-2.5h79.867c1.381 0 2.5 1.119 2.5 2.5s-1.118 2.5-2.499 2.5z"/></g></g><g><g><path d="m171.284 201.116h-70.574c-1.381 0-2.5-1.119-2.5-2.5s1.119-2.5 2.5-2.5h70.574c1.381 0 2.5 1.119 2.5 2.5s-1.119 2.5-2.5 2.5z"/></g></g><g><g><path d="m91.84 201.116h-26.61c-1.381 0-2.5-1.119-2.5-2.5s1.119-2.5 2.5-2.5h26.61c1.381 0 2.5 1.119 2.5 2.5s-1.119 2.5-2.5 2.5z"/></g></g><g><g><path d="m171.284 214.39h-50.375c-1.381 0-2.5-1.119-2.5-2.5s1.119-2.5 2.5-2.5h50.375c1.381 0 2.5 1.119 2.5 2.5s-1.119 2.5-2.5 2.5z"/></g></g><g><g><path d="m112.061 214.39h-46.832c-1.381 0-2.5-1.119-2.5-2.5s1.119-2.5 2.5-2.5h46.831c1.381 0 2.5 1.119 2.5 2.5s-1.119 2.5-2.499 2.5z"/></g></g></g><g><g><path d="m74.763 65.026h-37.263c-1.381 0-2.5-1.119-2.5-2.5s1.119-2.5 2.5-2.5h37.263c5.426 0 9.841-4.415 9.841-9.841v-37.797c0-1.381 1.119-2.5 2.5-2.5s2.5 1.119 2.5 2.5v37.797c0 8.184-6.658 14.841-14.841 14.841z"/></g></g></g></g></svg>