<svg id="icons" enable-background="new 0 0 64 64" height="512" viewBox="0 0 64 64" width="512" xmlns="http://www.w3.org/2000/svg"><g><g><g><path d="m63.42 43.652h-.01l-5.191 5.061 1.24 7.229h.01c-1.729 2.051-3.939 3.691-6.459 4.73l-6.529-3.43-6.531 3.43c-2.52-1.039-4.73-2.68-6.459-4.73h.01l1.25-7.229-5.201-5.061h-.01c.211-2.82 1.111-5.439 2.541-7.711l.01.01 7.129-1.039 3.17-6.42v-.01c1.311-.33 2.682-.5 4.092-.5 1.408 0 2.779.17 4.09.5v.01l3.17 6.42 7.129 1.039.01-.01c1.428 2.272 2.328 4.891 2.539 7.711zm-12.711 7.33 2.611-8.041-6.84-4.959-6.842 4.959 2.621 8.041z" fill="#e6e9ed"/></g><g><path d="m32.08 35.941c2.309-3.67 5.979-6.398 10.309-7.459v.01l-3.17 6.42-7.129 1.039z" fill="#656d78"/></g><g><path d="m29.549 43.652 5.201 5.061-1.25 7.229h-.01c-2.5-2.959-4.01-6.789-4.01-10.959 0-.451.02-.891.059-1.33h.01z" fill="#656d78"/></g><g><path d="m53.01 60.672c-2.01.85-4.221 1.311-6.529 1.311-2.311 0-4.521-.461-6.531-1.311l6.531-3.43z" fill="#656d78"/></g><g><path d="m60.869 35.951-7.129-1.039-3.17-6.42v-.01c4.33 1.061 8 3.789 10.309 7.459z" fill="#656d78"/></g><g><path d="m58.219 48.713 5.191-5.061h.01c.039.439.061.879.061 1.33 0 4.17-1.512 8-4.012 10.959h-.01z" fill="#656d78"/></g><g><path d="m53.32 42.941-2.611 8.041h-8.449l-2.621-8.041 6.841-4.959z" fill="#656d78"/></g><g><path d="m13.18 7.021c.221.621.34 1.291.34 1.99 0 3.32-2.689 6.01-6 6.01-.699 0-1.369-.119-2-.35-.98-.34-1.85-.939-2.52-1.709-.92-1.061-1.48-2.441-1.48-3.951 0-3.311 2.689-5.99 6-6 1.51 0 2.891.561 3.939 1.48.771.681 1.371 1.54 1.721 2.53z" fill="#ed5565"/></g><g><path d="m30.5 7.963c6.639 6.639 6.639 17.398 0 24.039-6.641 6.641-17.4 6.641-24.041 0-5.15-5.15-6.299-12.779-3.459-19.039.67.77 1.539 1.369 2.52 1.709-2.07 5.07-1.051 11.1 3.061 15.211 5.469 5.459 14.34 5.459 19.799 0 5.471-5.471 5.471-14.34 0-19.801-4.11-4.109-10.14-5.131-15.2-3.061-.35-.99-.949-1.85-1.721-2.529 6.26-2.84 13.891-1.679 19.041 3.471z" fill="#656d78"/></g><g><path d="m28.379 10.082c5.471 5.461 5.471 14.33 0 19.801-5.459 5.459-14.33 5.459-19.799 0-4.111-4.112-5.131-10.141-3.06-15.211.631.23 1.301.35 2 .35 3.311 0 6-2.689 6-6.01 0-.699-.119-1.369-.34-1.99 5.06-2.071 11.09-1.049 15.199 3.06z" fill="#e6e9ed"/></g></g><g><path d="m7.521 16.02c-3.861 0-7.002-3.141-7.002-7 0-3.857 3.141-6.998 7-7.002 3.861.004 7 3.145 7 7.002.001 3.859-3.138 7-6.998 7zm-.001-12.002c-2.756.002-5 2.246-5 5.002 0 2.758 2.244 5 5.002 5 2.756 0 4.998-2.242 4.998-5 0-2.756-2.243-5-5-5.002z" fill="#ed5565"/></g><g><path d="m7.521 12.523c-.553 0-1-.447-1-1v-5.002c0-.553.447-1 1-1s1 .447 1 1v5.002c0 .553-.447 1-1 1z" fill="#e6e9ed"/></g><g><path d="m10.021 10.023h-5.001c-.553 0-1-.447-1-1s.447-1 1-1h5.002c.553 0 1 .447 1 1s-.448 1-1.001 1z" fill="#e6e9ed"/></g><g><path d="m18.48 20.982c-.553 0-1-.447-1-1v-7.992c0-.553.447-1 1-1s1 .447 1 1v7.992c0 .553-.447 1-1 1z" fill="#656d78"/></g><g><path d="m24.113 26.576c-.256 0-.512-.098-.707-.293l-5.65-5.65c-.391-.391-.391-1.023 0-1.414s1.023-.391 1.414 0l5.65 5.65c.391.391.391 1.023 0 1.414-.195.196-.451.293-.707.293z" fill="#656d78"/></g></g></svg>