<svg enable-background="new 0 0 256 256" height="512" viewBox="0 0 256 256" width="512" xmlns="http://www.w3.org/2000/svg"><g id="Layer_24"><g><g><g><path d="m83.378 139.434c-2.677 0-4.847-2.17-4.847-4.847v-50.202c0-2.677 2.17-4.847 4.847-4.847h116.433v-55.072c0-6.787-5.553-12.341-12.341-12.341h-100.366l-50.402 50.401v159.008c0 6.787 5.553 12.341 12.341 12.341h138.428c6.787 0 12.341-5.553 12.341-12.341v-82.101h-116.434z" fill="#edf4fc"/></g></g><g><g><path d="m206.298 79.538h-122.92c-2.677 0-4.847 2.17-4.847 4.847v50.201c0 2.677 2.17 4.847 4.847 4.847h122.92c2.677 0 4.847-2.17 4.847-4.847v-50.201c0-2.677-2.17-4.847-4.847-4.847z" fill="#fc8c48"/></g></g><g><g><path d="m36.702 62.526h38.061c6.787 0 12.341-5.553 12.341-12.341v-38.06z" fill="#fca265"/></g></g><g><g><path d="m158.944 180.08-21.388-16.07c-2.125-1.597-5.154-1.182-6.763.96-1.6 2.129-1.169 5.163.96 6.763l16.249 12.208-16.249 12.208c-2.129 1.601-2.56 4.635-.96 6.763 1.608 2.139 4.644 2.553 6.763.96l21.389-16.071c2.569-1.929 2.573-5.786-.001-7.721z" fill="#818182"/></g></g><g><g><path d="m104.245 196.15-16.248-12.208 16.248-12.208c2.134-1.604 2.565-4.629.96-6.763-1.599-2.129-4.634-2.56-6.763-.961l-21.388 16.071c-1.225.921-1.928 2.329-1.928 3.862s.703 2.94 1.928 3.861l21.388 16.07c2.133 1.603 5.16 1.174 6.763-.96 1.601-2.131 1.179-5.156-.96-6.764z" fill="#818182"/></g></g><g><g><path d="m127.07 157.787c-2.487-.88-5.265.396-6.166 2.94l-15.302 43.204c-.891 2.516.423 5.274 2.94 6.166 2.53.896 5.279-.436 6.165-2.94l15.302-43.204c.895-2.522-.427-5.276-2.939-6.166z" fill="#818182"/></g></g><g><g><path d="m53.194 19.551c-4.149.773-7.419 3.976-8.208 8.041-.04.204-.325.204-.364 0-.789-4.065-4.059-7.268-8.208-8.041-.208-.039-.208-.318 0-.357 4.149-.773 7.419-3.976 8.208-8.041.04-.204.325-.204.364 0 .789 4.065 4.059 7.268 8.208 8.041.208.039.208.318 0 .357z" fill="#fc657e"/></g></g><g><g><path d="m221.688 158.998c-2.91.542-5.204 2.789-5.757 5.64-.028.143-.228.143-.255 0-.553-2.851-2.847-5.098-5.757-5.64-.146-.027-.146-.223 0-.25 2.91-.542 5.204-2.789 5.757-5.64.028-.143.228-.143.255 0 .553 2.851 2.847 5.098 5.757 5.64.146.027.146.222 0 .25z" fill="#f5c84c"/></g></g><g><g><circle cx="76.257" cy="3.377" fill="#70d6f9" r="3.377"/></g></g><g><g><circle cx="213.257" cy="183.377" fill="#87d147" r="3.377"/></g></g><g><g><path d="m122.73 246.758h-1.824v-1.824c0-1.366-1.107-2.473-2.473-2.473s-2.473 1.107-2.473 2.473v1.824h-1.824c-1.366 0-2.473 1.107-2.473 2.473s1.107 2.473 2.473 2.473h1.824v1.824c0 1.366 1.107 2.473 2.473 2.473s2.473-1.107 2.473-2.473v-1.824h1.824c1.366 0 2.473-1.107 2.473-2.473s-1.108-2.473-2.473-2.473z" fill="#70d6f9"/></g></g><g><g><circle cx="149.641" cy="247.627" fill="#f5c84c" r="3.377"/></g></g><g><g><path d="m206.298 141.934h-122.92c-4.051 0-7.347-3.296-7.347-7.347v-50.202c0-4.052 3.296-7.348 7.347-7.348h122.92c4.052 0 7.348 3.296 7.348 7.348v50.201c0 4.052-3.296 7.348-7.348 7.348zm-122.92-59.896c-1.294 0-2.347 1.053-2.347 2.348v50.201c0 1.294 1.053 2.347 2.347 2.347h122.92c1.295 0 2.348-1.053 2.348-2.347v-50.202c0-1.294-1.053-2.348-2.348-2.348h-122.92z"/></g></g><g><g><path d="m114.935 93.008h-4.168c-.28 0-.506.226-.506.506v13.313h-15.209v-13.313c0-.28-.226-.506-.506-.506h-4.122c-.28 0-.506.226-.506.506v31.943c0 .28.226.506.506.506h4.122c.28 0 .506-.226.506-.506v-14.264h15.209v14.264c0 .28.226.506.506.506h4.168c.28 0 .506-.226.506-.506v-31.943c0-.279-.226-.506-.506-.506z"/></g></g><g><g><path d="m141.124 93.008h-22.156c-.28 0-.506.226-.506.506v3.353c0 .28.226.506.506.506h8.511v28.084c0 .28.226.506.506.506h4.122c.28 0 .506-.226.506-.506v-28.084h8.511c.28 0 .506-.226.506-.506v-3.353c0-.279-.226-.506-.506-.506z"/></g></g><g><g><path d="m177.188 93.552h-4.938c-.205 0-.389.123-.468.312l-10.501 25.255-10.676-25.258c-.08-.187-.263-.309-.467-.309h-4.938c-.28 0-.506.226-.506.506v31.399c0 .28.226.506.506.506h4.122c.28 0 .506-.226.506-.506v-22.355l9.083 22.544c.077.191.263.317.47.317h3.67c.207 0 .393-.126.47-.318l9.038-22.613v22.425c0 .28.226.506.506.506h4.122c.28 0 .506-.226.506-.506v-31.399c.001-.28-.225-.506-.505-.506z"/></g></g><g><g><path d="m199.253 121.734h-10.821v-28.22c0-.28-.226-.506-.506-.506h-4.122c-.28 0-.506.226-.506.506v31.943c0 .28.226.506.506.506h15.45c.28 0 .506-.226.506-.506v-3.217c-.001-.28-.228-.506-.507-.506z"/></g></g><g><g><path d="m187.471 236.375h-138.428c-8.184 0-14.841-6.658-14.841-14.841v-159.008c0-.663.264-1.299.732-1.768l50.401-50.401c.469-.469 1.104-.732 1.768-.732h100.367c8.184 0 14.841 6.658 14.841 14.841v54.117c0 1.381-1.119 2.5-2.5 2.5s-2.5-1.119-2.5-2.5v-54.117c0-5.426-4.415-9.841-9.841-9.841h-99.331l-48.937 48.937v157.972c0 5.426 4.415 9.841 9.841 9.841h138.428c5.426 0 9.841-4.415 9.841-9.841v-81.315c0-1.381 1.119-2.5 2.5-2.5s2.5 1.119 2.5 2.5v81.315c0 8.183-6.658 14.841-14.841 14.841z"/></g></g><g><g><path d="m74.763 65.026h-37.471c-1.381 0-2.5-1.119-2.5-2.5s1.119-2.5 2.5-2.5h37.471c5.426 0 9.841-4.415 9.841-9.841v-37.518c0-1.381 1.119-2.5 2.5-2.5s2.5 1.119 2.5 2.5v37.519c0 8.183-6.658 14.84-14.841 14.84z"/></g></g><g><g><path d="m134.664 207.34c-2.228 0-4.43-1.009-5.869-2.923-2.428-3.231-1.774-7.835 1.455-10.264l13.59-10.21-13.589-10.21c-3.231-2.429-3.884-7.033-1.456-10.264 2.429-3.232 7.032-3.883 10.264-1.457l21.388 16.07h.001c1.86 1.399 2.927 3.536 2.926 5.861 0 2.326-1.067 4.461-2.927 5.858l-21.389 16.071c-1.317.99-2.861 1.468-4.394 1.468zm-.006-41.798c-.709 0-1.409.321-1.867.93-.771 1.026-.563 2.49.464 3.263l16.249 12.208c.628.472.998 1.212.998 1.999s-.37 1.526-.998 1.999l-16.249 12.208c-1.026.772-1.235 2.236-.463 3.263.771 1.026 2.233 1.236 3.261.464l21.39-16.071c.592-.444.931-1.123.931-1.862s-.339-1.418-.931-1.864l-21.388-16.07c-.418-.315-.909-.467-1.397-.467z"/></g></g><g><g><path d="m101.329 207.344c-1.576 0-3.104-.507-4.389-1.471l-21.388-16.071c-1.859-1.398-2.926-3.534-2.926-5.859 0-2.328 1.066-4.464 2.926-5.861l21.388-16.07c1.563-1.174 3.492-1.671 5.434-1.395 1.94.275 3.656 1.289 4.83 2.853 1.177 1.564 1.674 3.495 1.398 5.433-.275 1.938-1.29 3.652-2.855 4.829l-13.588 10.21 13.588 10.21c1.567 1.178 2.582 2.896 2.856 4.834.273 1.937-.224 3.865-1.4 5.43s-2.891 2.579-4.829 2.854c-.349.05-.698.074-1.045.074zm.007-41.801c-.501 0-.986.161-1.392.465l-21.388 16.07c-.6.451-.93 1.112-.93 1.864 0 .75.33 1.412.931 1.863l21.387 16.07c.498.374 1.11.533 1.728.444.615-.087 1.16-.41 1.534-.907.375-.499.533-1.111.446-1.727s-.41-1.162-.909-1.537l-16.248-12.208c-.628-.472-.998-1.212-.998-1.999s.37-1.526.998-1.999l16.248-12.208c.499-.375.821-.92.909-1.536.087-.615-.07-1.228-.445-1.726-.373-.497-.918-.818-1.536-.906-.112-.014-.224-.023-.335-.023z"/></g></g><g><g><path d="m110.149 212.875c-.811 0-1.634-.135-2.439-.42-3.81-1.35-5.812-5.547-4.463-9.357l15.302-43.205c.657-1.857 1.999-3.342 3.778-4.181 1.761-.831 3.742-.932 5.577-.281h.001c3.809 1.35 5.811 5.547 4.462 9.356l-15.302 43.205c-1.063 3.003-3.897 4.883-6.916 4.883zm15.308-52.866c-.341 0-.681.075-.998.225-.563.265-.988.737-1.197 1.327l-15.302 43.205c-.429 1.211.207 2.546 1.417 2.975 1.214.429 2.547-.207 2.976-1.417l15.302-43.204c.429-1.211-.208-2.546-1.419-2.975-.255-.091-.517-.136-.779-.136z"/></g></g></g></g></svg>