<svg height="513pt" viewBox="0 -16 513.57568 513" width="513pt" xmlns="http://www.w3.org/2000/svg"><path d="m57.574219 47.289062v15.777344c0 25.957032 21.042969 47 47 47s47-21.042968 47-47v-15.777344c0-25.957031-21.042969-47-47-47s-47 21.042969-47 47zm78 0v15.777344c0 17.121094-13.878907 31-31 31-17.121094 0-31-13.878906-31-31v-15.777344c-.042969-8.3125 3.226562-16.296874 9.078125-22.195312 5.855468-5.898438 13.820312-9.226562 22.128906-9.242188h-.320312c8.300781.019532 16.25 3.351563 22.089843 9.25 5.839844 5.902344 9.089844 13.886719 9.023438 22.1875zm0 0"/><path d="m477.589844 120.195312h-287.398438c-6.59375-5-14.214844-7.0625-22.34375-7.886718-1.640625-.121094-3.289062-.160156-4.933594-.113282h-20.765624c-2.007813-.078124-3.96875.621094-5.472657 1.953126l-30.644531 28.652343-29.460938-28.5c-1.511718-1.40625-3.515624-2.164062-5.578124-2.105469h-22.039063c-12.941406-.023437-25.359375 5.105469-34.511719 14.253907-9.152344 9.148437-14.285156 21.566406-14.265625 34.507812 0 1.5-.59375 2.8125.40625 4.308594v99.230469c-.085937 7.839844 2.96875 15.394531 8.480469 20.972656 5.515625 5.578125 13.03125 8.71875 20.875 8.726562h.007812l.332032.023438c5.453125-.0625 10.777344-1.65625 15.367187-4.601562l5.246094 160.476562c.414063 12.921875 8.695313 24.277344 20.875 28.617188 12.175781 4.34375 25.773437.792968 34.269531-8.949219 6.003906 6.699219 14.59375 10.5 23.585938 10.433593 17.011718.097657 31.007812-13.367187 31.5625-30.371093l2.28125-69.628907h314.125c19.625 0 35.984375-15.816406 35.984375-35.4375v-189.125c0-19.621093-16.359375-35.4375-35.984375-35.4375zm-75.214844 41c3.035156 38 22.199219 56.175782 59.199219 58.792969v60.417969c-18 1.332031-32.609375 6.5625-42.378907 16.179688-9.855468 9.699218-15.253906 23.609374-16.808593 42.609374h-208.710938c-1.75-22-8.683593-37.066406-21.390625-46.683593 3.074219 1.085937 6.308594 1.652343 9.570313 1.675781 16.414062.003906 29.71875-13.296875 29.71875-29.707031v-99.214844c0-1.453125.300781-3.070313.308593-4.070313zm-358.800781 102.6875c0 7.832032-5.984375 14.3125-13.488281 14.3125h-.148438c-3.585938.015626-7.027344-1.425781-9.527344-4-2.535156-2.585937-3.917968-6.082031-3.835937-9.699218v-99.617188c0-.269531-.207031-.539062-.234375-.804687-.144532-1.035157-.234375-2.074219-.269532-3.117188 0-8.710937 3.464844-17.0625 9.636719-23.210937 6.171875-6.148438 14.539063-9.585938 23.25-9.550782h18.785157l32.609374 31.507813c.050782.050781.101563-.015625.152344.03125.113282.097656.226563.152344.34375.246094.09375.078125.183594.125.277344.195312.121094.089844.242188.160157.363281.242188.097657.070312.199219.125.304688.1875.121093.074219.242187.140625.367187.207031s.21875.113281.332032.167969c.113281.050781.246093.113281.367187.164062.125.050781.238281.09375.359375.136719.117188.042969.242188.082031.367188.121094.121093.039062.25.074218.375.101562s.246093.058594.367187.082032c.125.027343.257813.050781.386719.070312s.25.035156.375.046875c.125.015625.257812.023437.386718.03125.128907.007813.253907.011719.382813.011719.128906.003906.253906 0 .378906-.003906.125-.007813.261719-.011719.390625-.023438.132813-.011719.246094-.027344.367188-.042969.125-.015625.265625-.039062.402344-.0625.132812-.023437.238281-.046875.355468-.074219.121094-.027343.265625-.066406.394532-.101562.132812-.035156.234374-.070312.347656-.109375.117187-.039063.257812-.089844.386718-.140625.125-.050781.226563-.09375.339844-.144531.113282-.050781.246094-.113281.371094-.175781.121094-.0625.222656-.121094.332031-.183594s.234375-.136719.347657-.210938c.117187-.078125.214843-.144531.320312-.222656.109375-.078125.222656-.164062.332031-.25s.199219-.167969.300781-.253906c.058594-.050782.125.113281.183594.058594l33.90625-31.609376h17.597656c1.105469-.070312 2.214844-.085937 3.320313-.042968 8.691406.824218 16.691406 5.089844 22.222656 11.847656 5.527344 6.757812 8.121094 15.445312 7.210938 24.125-.046875.25-.078125.503906-.09375.753906v99.601563c0 7.457031-6.042969 13.5-13.5 13.5s-13.5-6.042969-13.5-13.5v-26.792969l.125-3.792969c.015625-.574219-.125-1.136719-.125-1.683593v-27.25c0-4.417969-3.582031-8-8-8s-8 3.582031-8 8v32.472656l-.742188 8.761718h-91.589843l-.484376-12.929687c-.011718-.386719-.183593-.648437-.183593-1.015625v-27.289062c0-4.417969-3.582031-8-8-8s-8 3.582031-8 8zm85.816406 200.65625c-8.648437.011719-15.695313-6.933593-15.816406-15.582031v-156.5625c0-4.417969-3.582031-8-8-8s-8 3.582031-8 8v156.5625c.058593 8.457031-6.710938 15.378907-15.164063 15.511719-8.457031.132812-15.4375-6.574219-15.644531-15.027344l-6-187.246094h90.546875l-6.238281 187.214844c-.316407 8.4375-7.242188 15.117188-15.683594 15.128906zm368.183594-119.78125c0 10.800782-9.183594 19.4375-19.984375 19.4375h-313.597656l1.832031-56.042968c6.445312 6.558594 11.730469 17.847656 12.25 39.339844.117187 4.320312 3.679687 7.75 8 7.699218h223.902343c4.316407.066406 7.882813-3.351562 8-7.667968.453126-18.675782 4.585938-31.539063 12.636719-39.46875 8-7.878907 20.710938-11.78125 39.253907-12.007813 2.082031-.027344 4.066406-.882813 5.511718-2.375 1.449219-1.496094 2.238282-3.507813 2.195313-5.585937v-75.78125c.046875-2.085938-.742188-4.101563-2.191407-5.601563-1.445312-1.503906-3.429687-2.367187-5.515624-2.398437-37.082032-.453126-51.097657-14.292969-51.988282-51.441407-.074218-4.296875-3.605468-7.726562-7.902344-7.667969h-200.699218c-1.101563-3.109374-2.464844-6.121093-4.070313-9h272.382813c10.800781 0 19.984375 8.636719 19.984375 19.4375zm0 0"/><path d="m252.882812 225.195312c0 4.417969 3.582032 8 8 8h44.113282c-3.535156 9.515626-12.5625 15.875-22.714844 16h-21.398438c-3.265624-.046874-6.222656 1.921876-7.441406 4.949219-1.214844 3.03125-.445312 6.496094 1.941406 8.726563l53.492188 50.515625c3.191406 3.035156 8.238281 2.90625 11.273438-.285157 3.035156-3.191406 2.90625-8.238281-.285157-11.273437l-38.867187-36.632813h1.285156c18.992188-.097656 35.347656-13.421874 39.28125-32h14.101562c4.417969 0 8-3.582031 8-8 0-4.417968-3.582031-8-8-8h-14.101562c-1.207031-6-3.734375-12-7.261719-16h21.363281c4.417969 0 8-3.582031 8-8 0-4.417968-3.582031-8-8-8h-74.78125c-4.417968 0-8 3.582032-8 8 0 4.417969 3.582032 8 8 8h21.402344c10.476563 0 19.40625 6 22.710938 16h-44.109375c-4.417969 0-8.003907 3.582032-8.003907 8zm0 0"/></svg>