<?xml version="1.0" encoding="iso-8859-1"?>
<!-- Generator: Adobe Illustrator 19.0.0, SVG Export Plug-In . SVG Version: 6.00 Build 0)  -->
<svg version="1.1" id="Layer_1" xmlns="http://www.w3.org/2000/svg" xmlns:xlink="http://www.w3.org/1999/xlink" x="0px" y="0px"
	 viewBox="0 0 512 512" style="enable-background:new 0 0 512 512;" xml:space="preserve">
<g>
	<g>
		<path d="M374.821,228.688h-91.392v-91.394c0-15.148-12.281-27.429-27.429-27.429s-27.429,12.281-27.429,27.429v118.822
			c0,15.148,12.281,27.429,27.429,27.429h118.821c15.148,0,27.429-12.281,27.429-27.429S389.97,228.688,374.821,228.688z"/>
	</g>
</g>
<g>
	<g>
		<path d="M256,0C114.842,0,0,114.842,0,256.002C0,397.16,114.842,512,256,512s256-114.84,256-255.998C512,114.842,397.158,0,256,0z
			 M256,457.143c-110.91,0-201.143-90.231-201.143-201.141C54.857,145.09,145.09,54.857,256,54.857s201.143,90.233,201.143,201.145
			C457.143,366.912,366.91,457.143,256,457.143z"/>
	</g>
</g>
<g>
</g>
<g>
</g>
<g>
</g>
<g>
</g>
<g>
</g>
<g>
</g>
<g>
</g>
<g>
</g>
<g>
</g>
<g>
</g>
<g>
</g>
<g>
</g>
<g>
</g>
<g>
</g>
<g>
</g>
</svg>
